<?xml version="1.0" standalone="no"?>
<!DOCTYPE svg PUBLIC "-//W3C//DTD SVG 20010904//EN"
 "http://www.w3.org/TR/2001/REC-SVG-20010904/DTD/svg10.dtd">
<svg version="1.0" xmlns="http://www.w3.org/2000/svg"
 width="640.000000pt" height="640.000000pt" viewBox="0 0 640.000000 640.000000"
 preserveAspectRatio="xMidYMid meet">
<metadata>
Created by potrace 1.14, written by Peter Selinger 2001-2017
</metadata>
<g transform="translate(0.000000,640.000000) scale(0.100000,-0.100000)"
fill="#000000" stroke="none">
<path d="M0 3200 l0 -3200 3200 0 3200 0 0 3200 0 3200 -3200 0 -3200 0 0
-3200z m3375 2840 c411 -26 785 -131 1145 -322 597 -315 1060 -831 1311 -1463
70 -176 117 -350 161 -586 20 -112 22 -155 23 -439 0 -322 -8 -414 -56 -625
-119 -522 -388 -1007 -768 -1385 -424 -423 -928 -682 -1531 -787 -182 -31
-538 -43 -737 -23 -963 93 -1813 678 -2246 1545 -157 314 -243 603 -287 966
-8 63 -10 188 -7 355 4 219 9 282 30 406 106 604 363 1103 787 1528 74 75 178
170 230 212 433 345 928 550 1465 608 91 9 133 12 275 18 25 1 117 -3 205 -8z"/>
<path d="M3010 6024 c-1322 -101 -2390 -1085 -2586 -2384 -112 -743 84 -1520
535 -2110 457 -600 1109 -985 1846 -1090 347 -50 730 -32 1060 51 681 170
1242 558 1656 1144 124 176 302 539 354 724 110 388 131 530 129 871 -1 245
-20 416 -68 625 -205 880 -840 1628 -1666 1960 -63 25 -124 50 -135 55 -92 40
-369 106 -550 131 -136 19 -460 31 -575 23z m495 -95 c432 -51 835 -197 1195
-434 70 -46 134 -90 141 -97 8 -7 50 -42 94 -77 114 -91 305 -287 408 -418
316 -403 513 -887 568 -1393 7 -67 9 -198 6 -360 -5 -215 -9 -276 -31 -390
-57 -305 -123 -507 -246 -752 -418 -834 -1225 -1397 -2145 -1498 -116 -13
-474 -13 -590 0 -765 84 -1461 490 -1912 1115 -244 339 -402 709 -477 1120
-51 282 -48 684 8 990 95 519 364 1025 750 1411 435 434 971 698 1586 779 119
16 525 19 645 4z"/>
<path d="M2860 5830 c-511 -69 -955 -264 -1350 -593 -597 -499 -940 -1233
-940 -2012 1 -1023 580 -1946 1495 -2380 109 -52 287 -125 304 -125 4 0 42
-11 82 -24 358 -117 863 -138 1279 -55 673 135 1291 553 1664 1124 84 128 99
155 148 250 194 381 288 773 288 1202 0 720 -269 1365 -780 1873 -355 353
-800 596 -1290 704 -260 57 -631 72 -900 36z m170 -141 c0 -6 -25 -70 -56
-142 -55 -129 -56 -132 -52 -216 l3 -86 -45 0 -45 0 -8 74 c-8 72 -10 75 -98
198 -50 69 -87 129 -82 133 4 5 26 10 48 12 39 3 40 2 99 -81 l60 -84 13 29
c7 16 26 59 42 96 27 61 32 67 63 71 18 2 39 5 46 5 6 1 12 -3 12 -9z m385 -9
c174 -17 175 -17 175 -54 0 -49 -9 -53 -114 -43 -119 12 -128 8 -124 -40 l3
-38 80 -10 c79 -10 80 -10 83 -40 4 -53 -6 -58 -94 -47 -43 5 -82 7 -86 5 -5
-2 -8 -23 -8 -46 0 -23 -3 -59 -6 -79 -7 -41 -26 -48 -76 -29 l-24 9 13 129
c7 70 17 165 24 211 13 94 -3 87 154 72z m475 -96 c25 -8 54 -18 65 -23 11 -5
55 -22 98 -36 80 -29 85 -36 65 -80 -13 -29 -22 -30 -73 -9 -21 8 -43 13 -49
11 -7 -3 -36 -74 -66 -159 -29 -84 -54 -155 -56 -157 -9 -10 -84 21 -84 35 0
9 23 80 50 158 28 78 50 147 50 153 0 7 -24 20 -52 31 -46 17 -53 23 -49 43 6
41 21 61 39 54 9 -4 37 -14 62 -21z m-1456 -25 c6 -5 3 -22 -7 -44 -15 -31
-20 -34 -47 -29 -60 12 -120 -35 -90 -71 9 -11 34 -15 87 -15 112 0 160 -29
177 -107 22 -100 -116 -200 -235 -171 -59 14 -63 20 -45 56 15 30 18 31 65 25
63 -7 111 18 111 59 0 37 -25 48 -110 48 -82 0 -123 17 -145 60 -54 104 56
221 190 203 22 -3 44 -9 49 -14z m926 -459 c462 -41 866 -232 1187 -561 277
-285 438 -601 515 -1009 40 -213 29 -531 -28 -755 -175 -693 -704 -1222 -1389
-1389 -232 -56 -526 -67 -755 -27 -188 33 -372 92 -525 168 -65 33 -207 117
-230 135 -5 5 -41 32 -80 60 -103 77 -257 229 -345 343 -190 245 -314 528
-371 845 -32 181 -31 452 4 635 62 329 171 574 368 830 389 506 1015 781 1649
725z m-2210 -1700 c0 -19 -7 -20 -200 -20 -193 0 -200 1 -200 20 0 19 7 20
200 20 193 0 200 -1 200 -20z m4490 0 c0 -19 -7 -20 -195 -20 -188 0 -195 1
-195 20 0 19 7 20 195 20 188 0 195 -1 195 -20z m-4767 -111 c30 -16 37 -28
37 -66 0 -25 -9 -39 -42 -67 l-43 -36 42 0 c46 0 61 -13 42 -36 -9 -11 -29
-14 -78 -12 l-66 3 2 30 c2 22 15 40 48 69 51 43 60 76 20 76 -14 0 -25 -4
-25 -10 0 -15 -26 -12 -39 3 -8 11 -7 18 7 29 32 29 62 34 95 17z m229 -16
c46 -41 41 -143 -9 -183 -37 -29 -79 -26 -114 9 -25 25 -29 37 -29 83 0 58 18
93 54 108 28 12 75 4 98 -17z m4437 16 c34 -12 49 -45 33 -76 -7 -13 -6 -24 4
-38 20 -28 17 -53 -11 -80 -30 -31 -73 -32 -109 -4 -26 21 -36 71 -16 84 5 3
7 25 4 48 -6 45 3 60 41 70 11 2 20 5 21 6 1 0 15 -4 33 -10z m-149 -103 c0
-95 -2 -104 -20 -109 -28 -7 -33 6 -31 80 2 57 -1 65 -19 70 -11 3 -20 11 -20
19 0 18 40 44 67 44 22 0 23 -2 23 -104z m-4242 -218 c3 -17 -11 -18 -197 -18
-195 0 -201 1 -201 20 0 20 5 20 197 18 179 -3 198 -5 201 -20z m4492 2 c0
-19 -7 -20 -195 -20 -188 0 -195 1 -195 20 0 19 7 20 195 20 188 0 195 -1 195
-20z m-649 -1056 c38 -104 48 -120 91 -158 26 -22 48 -46 48 -52 0 -6 -11 -21
-25 -34 l-24 -23 -47 42 c-26 23 -57 44 -68 46 -12 3 -68 14 -126 26 -58 12
-107 23 -109 25 -3 3 8 18 25 34 l29 29 60 -14 c33 -8 68 -15 79 -15 21 0 20
2 -15 97 l-23 63 24 25 c13 14 27 25 31 25 4 0 26 -52 50 -116z m-3425 -9 c64
-32 96 -80 102 -151 l4 -54 -36 0 c-33 0 -36 2 -36 30 0 132 -175 166 -226 45
-33 -79 67 -199 116 -140 10 13 10 19 -4 33 -21 24 -20 39 4 52 17 9 25 4 57
-31 21 -23 41 -47 45 -54 12 -20 -77 -95 -113 -95 -95 0 -189 100 -189 202 0
142 146 228 276 163z m3166 -152 c25 -23 23 -39 -12 -65 -16 -12 -30 -27 -30
-33 0 -6 41 -57 90 -114 l91 -104 -22 -23 c-13 -13 -27 -24 -34 -24 -6 0 -32
26 -59 58 -26 31 -68 79 -93 105 l-46 48 -31 -30 c-18 -17 -37 -31 -43 -31
-11 0 -48 49 -41 55 41 37 204 175 207 175 2 0 13 -7 23 -17z m-2871 -134 c79
-24 148 -110 149 -184 0 -109 -84 -195 -192 -195 -56 0 -132 42 -165 91 -40
61 -44 143 -10 202 47 79 130 112 218 86z m2623 -84 c9 -13 16 -26 16 -29 0
-2 -34 -26 -75 -52 -41 -26 -75 -49 -75 -50 0 -11 25 -54 30 -54 4 0 34 16 66
35 l59 36 18 -22 c9 -12 17 -25 17 -30 0 -5 -25 -25 -55 -45 -60 -40 -64 -50
-37 -83 l17 -22 70 45 c39 25 77 46 86 46 15 0 47 -46 38 -54 -12 -10 -202
-128 -214 -132 -13 -5 -65 67 -166 232 l-38 63 37 26 c59 42 176 115 183 115
4 0 14 -11 23 -25z m-2304 -120 c17 -9 30 -18 30 -20 0 -3 -27 -59 -60 -125
-33 -66 -60 -124 -60 -130 0 -5 32 -26 70 -45 39 -19 70 -39 70 -43 0 -4 -9
-18 -19 -31 l-18 -24 -104 53 c-57 29 -105 54 -107 55 -5 4 157 325 164 325 3
0 18 -7 34 -15z m2002 -97 c78 -159 118 -247 118 -260 0 -13 -39 -38 -59 -38
-4 0 -22 33 -41 73 -18 39 -51 107 -72 150 -43 88 -45 102 -20 116 33 20 49
11 74 -41z m-1572 -81 c19 -6 40 -14 46 -19 12 -9 7 -55 -7 -64 -5 -3 -45 8
-90 23 -79 27 -81 28 -95 9 -8 -11 -14 -27 -14 -35 0 -15 46 -38 108 -56 24
-7 29 -32 9 -58 -11 -17 -16 -16 -71 3 -33 11 -63 20 -67 20 -4 0 -17 -29 -29
-65 -12 -36 -26 -65 -30 -65 -21 0 -60 24 -60 37 0 13 97 308 106 324 2 4 39
-4 81 -18 43 -14 94 -30 113 -36z m1390 37 c39 -8 47 -26 27 -58 -15 -22 -19
-23 -55 -13 -49 13 -87 3 -123 -33 -59 -58 -28 -162 56 -190 29 -9 41 -8 79 8
24 11 50 31 56 44 7 12 14 24 15 26 1 1 14 -3 29 -9 83 -38 -64 -161 -175
-146 -193 26 -232 284 -54 363 33 14 94 18 145 8z m-413 -127 c133 -92 107
-283 -46 -335 -89 -31 -184 1 -232 76 -50 80 -35 179 38 244 61 55 172 62 240
15z m-426 -4 c34 -20 36 -33 10 -57 -18 -16 -21 -16 -51 -1 -36 19 -75 13 -84
-11 -9 -24 16 -47 74 -68 62 -22 90 -56 90 -108 0 -32 -7 -47 -34 -74 -31 -31
-39 -34 -93 -34 -95 0 -178 61 -123 90 17 9 29 8 55 -4 46 -22 92 -21 105 3
16 32 2 48 -66 77 -74 31 -94 53 -94 104 0 93 116 139 211 83z"/>
<path d="M2967 5000 c-235 -27 -545 -142 -749 -277 -173 -115 -360 -296 -480
-464 -85 -118 -208 -363 -247 -494 -67 -219 -75 -277 -75 -545 0 -217 3 -257
23 -350 157 -726 690 -1257 1416 -1411 98 -21 136 -24 350 -24 227 0 247 2
362 28 359 82 628 226 881 471 259 251 415 529 508 911 26 105 28 122 28 370
1 251 0 264 -27 380 -37 158 -68 246 -133 383 -67 142 -110 214 -196 327 -262
345 -643 584 -1073 675 -114 24 -451 35 -588 20z m297 -314 c45 -19 53 -34 28
-59 -18 -18 -25 -19 -47 -9 -35 16 -61 15 -79 -4 -25 -24 -4 -50 56 -69 75
-25 108 -58 108 -110 0 -95 -119 -147 -220 -95 -51 26 -57 38 -32 62 20 20 22
20 55 4 65 -30 112 -14 105 36 -2 17 -16 27 -67 44 -36 13 -73 33 -83 46 -20
26 -23 79 -7 109 27 52 115 73 183 45z m-697 -808 l243 -243 69 -2 69 -2 4
178 c3 196 8 213 71 252 46 29 136 23 173 -12 48 -44 54 -74 54 -264 0 -160 6
-197 25 -165 11 17 84 11 127 -11 l41 -21 42 21 c24 12 62 21 87 21 l44 0 239
240 c132 132 248 243 257 246 45 14 86 -30 65 -71 -5 -11 -113 -124 -239 -250
l-229 -230 -3 -395 c-1 -217 -6 -404 -10 -416 -6 -18 11 -40 108 -139 l116
-118 28 23 c15 14 34 31 42 40 35 36 138 120 177 144 32 20 56 26 97 26 49 0
57 -3 94 -40 72 -72 77 -199 11 -254 -56 -48 -310 -113 -370 -96 -24 7 -79 55
-186 162 l-152 152 -44 -41 c-99 -91 -190 -118 -397 -118 -131 1 -165 4 -222
23 -91 29 -123 46 -178 98 l-46 43 -153 -154 c-98 -99 -165 -158 -186 -165
-60 -20 -321 49 -374 99 -72 67 -61 185 24 260 31 26 43 31 89 31 66 0 113
-29 247 -152 l90 -82 105 105 c58 57 110 112 115 122 9 16 -8 38 -114 145 -69
70 -132 141 -141 159 -22 43 -20 86 5 134 37 73 128 96 211 53 l28 -15 1 68
c1 38 0 104 -1 148 -1 44 4 93 10 109 11 29 8 32 -232 273 -134 133 -244 252
-246 264 -4 26 25 59 52 59 13 0 104 -84 263 -242z m-377 -472 c0 -34 -1 -35
-47 -38 l-48 -3 -5 -145 c-5 -157 -1 -147 -60 -142 -18 2 -20 11 -22 145 l-3
142 -50 5 c-38 4 -51 9 -53 23 -9 44 0 47 148 47 l140 0 0 -34z m2144 -37 c21
-38 42 -69 48 -67 5 2 26 33 47 68 34 60 40 65 74 68 21 2 37 -1 37 -7 0 -10
-66 -138 -102 -196 -12 -21 -18 -50 -18 -92 0 -43 -4 -63 -12 -64 -66 -6 -63
-9 -68 66 -4 63 -11 82 -62 173 -32 57 -58 107 -58 112 0 6 17 10 38 10 37 0
39 -2 76 -71z m-974 -1184 l0 -34 -92 -3 -93 -3 0 -35 0 -35 73 -3 72 -3 0
-34 0 -34 -72 -3 -73 -3 -2 -42 c0 -24 -2 -56 -2 -73 -1 -27 -4 -30 -35 -30
-22 0 -36 6 -40 16 -8 21 -8 339 1 347 3 4 64 7 135 7 l128 0 0 -35z"/>
<path d="M3064 4009 c-41 -21 -44 -46 -44 -383 0 -178 -3 -337 -6 -354 -7 -36
-27 -47 -49 -26 -12 12 -15 42 -15 144 0 110 -3 131 -19 151 -25 31 -83 30
-117 -2 l-24 -22 0 -358 c0 -334 1 -362 20 -412 48 -127 183 -188 415 -188
217 0 340 56 398 181 19 43 20 64 21 401 1 388 0 397 -55 420 -36 14 -81 -1
-97 -34 -6 -12 -13 -80 -14 -150 -2 -101 -6 -130 -18 -137 -32 -20 -44 14 -47
137 -2 65 -6 128 -9 140 -10 51 -111 65 -137 19 -7 -12 -14 -78 -17 -156 -5
-129 -6 -135 -27 -138 -15 -2 -23 4 -28 19 -7 21 -12 218 -14 565 -1 119 -4
145 -18 163 -21 25 -70 35 -99 20z"/>
<path d="M2555 3145 c-18 -17 -25 -35 -25 -61 0 -33 9 -46 89 -125 49 -49 94
-89 99 -89 5 0 8 12 7 28 -1 15 -3 66 -3 114 -2 82 -4 89 -33 123 -40 45 -96
49 -134 10z"/>
<path d="M2121 2636 c-14 -15 -25 -42 -28 -69 -7 -59 21 -88 107 -116 141 -44
250 -49 250 -10 0 16 -131 136 -197 182 -64 43 -100 47 -132 13z"/>
<path d="M4189 2632 c-24 -16 -82 -66 -129 -110 -81 -78 -84 -83 -66 -97 32
-25 104 -15 249 32 71 23 80 29 93 60 26 61 -18 143 -76 143 -14 0 -46 -13
-71 -28z"/>
<path d="M1012 3238 c-16 -16 -16 -90 0 -106 17 -17 55 -15 62 4 10 27 7 89
-6 102 -7 7 -19 12 -28 12 -9 0 -21 -5 -28 -12z"/>
<path d="M5490 3245 c-10 -11 -10 -19 -2 -27 15 -15 44 -2 40 19 -4 23 -22 27
-38 8z"/>
<path d="M5480 3155 c-10 -12 -10 -18 0 -30 20 -25 55 -15 55 15 0 30 -35 40
-55 15z"/>
<path d="M1763 1537 c-39 -22 -63 -63 -63 -107 0 -34 6 -48 34 -76 97 -97 248
26 176 144 -30 49 -97 67 -147 39z"/>
<path d="M3443 1102 c-63 -19 -96 -89 -73 -156 28 -85 154 -99 201 -22 56 92
-27 208 -128 178z"/>
</g>
</svg>
